<svg width="60" height="60" viewBox="0 0 60 60" fill="none" xmlns="http://www.w3.org/2000/svg">
<rect width="60" height="60" rx="30" fill="#F7F7F7"/>
<path d="M18.75 27.5C18.75 26.1193 19.8693 25 21.25 25H22.7083C23.7176 25 24.6279 24.3931 25.016 23.4615L25.2965 22.7885C25.6846 21.8569 26.5949 21.25 27.6041 21.25H32.3959C33.4051 21.25 34.3154 21.8569 34.7035 22.7885L34.984 23.4615C35.3721 24.3931 36.2824 25 37.2916 25H38.75C40.1307 25 41.25 26.1193 41.25 27.5V36.25C41.25 37.6307 40.1307 38.75 38.75 38.75H21.25C19.8693 38.75 18.75 37.6307 18.75 36.25V27.5Z" stroke="#231F20" stroke-width="1.25" stroke-linecap="round"/>
<path d="M33.75 31.25C33.75 33.3211 32.0711 35 30 35C27.9289 35 26.25 33.3211 26.25 31.25C26.25 29.1789 27.9289 27.5 30 27.5C32.0711 27.5 33.75 29.1789 33.75 31.25Z" stroke="#231F20" stroke-width="1.25" stroke-linecap="round"/>
</svg>
