<svg width="24" height="24" viewBox="0 0 24 24" fill="none" xmlns="http://www.w3.org/2000/svg">
<path d="M3 4.5L4.87153 5.12385C5.56699 5.35566 6.07989 5.94939 6.2082 6.67114L7.30668 12.8501C7.47638 13.8046 8.30628 14.5 9.2758 14.5H16.896C17.7868 14.5 18.5702 13.9109 18.8174 13.0551L20.2619 8.05508C20.6313 6.77618 19.6716 5.5 18.3404 5.5H9M10 18C10 18.8284 9.32843 19.5 8.5 19.5C7.67157 19.5 7 18.8284 7 18C7 17.1716 7.67157 16.5 8.5 16.5C9.32843 16.5 10 17.1716 10 18ZM18 18C18 18.8284 17.3284 19.5 16.5 19.5C15.6716 19.5 15 18.8284 15 18C15 17.1716 15.6716 16.5 16.5 16.5C17.3284 16.5 18 17.1716 18 18Z" stroke="#A8CE37" stroke-width="1.25" stroke-linecap="round"/>
</svg>
