<svg width="187" height="31" viewBox="0 0 187 31" fill="none" xmlns="http://www.w3.org/2000/svg">
<g clip-path="url(#clip0_2197_2993)">
<path fill-rule="evenodd" clip-rule="evenodd" d="M27.8734 30.5L40.8704 22.9955V8.00453L27.8734 0.5L14.8945 8.00453V22.9955L27.8734 30.5ZM27.8799 24.3042C32.7407 24.3042 36.6812 20.3637 36.6812 15.5029C36.6812 10.642 32.7407 6.70154 27.8799 6.70154C23.019 6.70154 19.0785 10.642 19.0785 15.5029C19.0785 20.3637 23.019 24.3042 27.8799 24.3042Z" fill="#A8CE37"/>
<path d="M12.9789 0.5L19.5067 4.26923L14.928 6.91667C14.303 6.77586 13.6529 6.70154 12.9853 6.70154C8.12449 6.70154 4.18401 10.642 4.18401 15.5029C4.18401 20.3637 8.12449 24.3042 12.9853 24.3042C13.6554 24.3042 14.308 24.2293 14.9352 24.0874L19.5067 26.7308L12.9789 30.5L0 22.9955V8.00453L12.9789 0.5Z" fill="url(#paint0_linear_2197_2993)"/>
<path d="M58.7576 14.4189H68.8108V15.7976C68.8108 18.5551 67.9012 20.8146 66.0821 22.5764C64.2821 24.3189 61.9076 25.1902 58.9586 25.1902C55.8565 25.1902 53.2905 24.1849 51.2607 22.1742C49.2501 20.1636 48.2448 17.6933 48.2448 14.7635C48.2448 11.8529 49.2501 9.39224 51.2607 7.38159C53.2905 5.3518 55.799 4.3369 58.7863 4.3369C60.6437 4.3369 62.348 4.76775 63.8991 5.62946C65.4693 6.47202 66.6853 7.63053 67.547 9.10501L64.7033 10.7423C64.1672 9.76565 63.3725 8.99011 62.3193 8.41564C61.2661 7.84117 60.0884 7.55394 58.7863 7.55394C56.6799 7.55394 54.9469 8.2433 53.5873 9.62203C52.2277 11.0199 51.548 12.7433 51.548 14.7923C51.548 16.8604 52.2277 18.5742 53.5873 19.9338C54.9852 21.2934 56.7852 21.9732 58.9874 21.9732C60.7491 21.9732 62.1948 21.5615 63.3246 20.738C64.4544 19.9146 65.1725 18.7944 65.4789 17.3774H58.7576V14.4189Z" fill="#231F20"/>
<path d="M85.503 18.9572H74.071C74.3008 20.0295 74.8178 20.8625 75.6221 21.4561C76.4455 22.0498 77.4604 22.3466 78.6668 22.3466C80.2945 22.3466 81.5296 21.7529 82.3721 20.5657L84.9285 22.0593C83.5307 24.1466 81.4338 25.1902 78.6381 25.1902C76.321 25.1902 74.4349 24.4817 72.9795 23.0647C71.5434 21.6285 70.8253 19.8189 70.8253 17.6359C70.8253 15.5104 71.5338 13.7199 72.9508 12.2646C74.3487 10.8093 76.1679 10.0816 78.4083 10.0816C80.4955 10.0816 82.2189 10.8188 83.5785 12.2933C84.9381 13.7678 85.6179 15.5582 85.6179 17.6646C85.6179 18.0476 85.5796 18.4785 85.503 18.9572ZM74.0423 16.4295H82.487C82.2764 15.2997 81.7977 14.4284 81.0509 13.8157C80.3232 13.2029 79.4328 12.8965 78.3796 12.8965C77.2306 12.8965 76.2732 13.2125 75.5072 13.8444C74.7413 14.4763 74.253 15.338 74.0423 16.4295Z" fill="#231F20"/>
<path d="M95.9018 10.0816C97.5678 10.0816 98.8987 10.6178 99.8944 11.6901C100.909 12.7433 101.417 14.1795 101.417 15.9987V24.8168H98.3146V16.3146C98.3146 15.2423 98.0274 14.4189 97.4529 13.8444C96.8784 13.2699 96.0933 12.9827 95.0976 12.9827C93.9678 12.9827 93.0773 13.3369 92.4263 14.0455C91.7752 14.7348 91.4497 15.7593 91.4497 17.1189V24.8168H88.3475V10.455H91.4497V12.2933C92.4071 10.8188 93.8912 10.0816 95.9018 10.0816Z" fill="#231F20"/>
<path d="M107.687 7.72628C107.304 8.10926 106.844 8.30075 106.308 8.30075C105.772 8.30075 105.303 8.10926 104.901 7.72628C104.518 7.32415 104.326 6.855 104.326 6.31882C104.326 5.78265 104.518 5.32307 104.901 4.94009C105.284 4.53796 105.753 4.3369 106.308 4.3369C106.863 4.3369 107.333 4.53796 107.716 4.94009C108.098 5.32307 108.29 5.78265 108.29 6.31882C108.29 6.855 108.089 7.32415 107.687 7.72628ZM107.859 24.8168H104.757V10.455H107.859V24.8168Z" fill="#231F20"/>
<path d="M114.563 10.455V12.8678C115.348 11.0869 116.823 10.1965 118.987 10.1965V13.5572C117.818 13.4806 116.784 13.7678 115.884 14.4189C115.004 15.0508 114.563 16.104 114.563 17.5785V24.8168H111.461V10.455H114.563Z" fill="#231F20"/>
<path d="M121.935 4.71031H129.345C131.241 4.71031 132.821 5.34223 134.085 6.60607C135.368 7.8699 136.009 9.44012 136.009 11.3167C136.009 13.1742 135.368 14.7444 134.085 16.0274C132.821 17.2912 131.241 17.9231 129.345 17.9231H125.238V24.8168H121.935V4.71031ZM125.238 14.821H129.345C130.322 14.821 131.126 14.4955 131.758 13.8444C132.39 13.1742 132.706 12.3316 132.706 11.3167C132.706 10.3018 132.39 9.46885 131.758 8.81778C131.126 8.14756 130.322 7.81246 129.345 7.81246H125.238V14.821Z" fill="#A8CE37"/>
<path d="M149.041 12.4944V10.455H152.143V24.8168H149.041V22.7487C147.873 24.3764 146.197 25.1902 144.014 25.1902C142.042 25.1902 140.357 24.4625 138.959 23.0072C137.561 21.5519 136.862 19.7614 136.862 17.6359C136.862 15.5104 137.561 13.7199 138.959 12.2646C140.357 10.8093 142.042 10.0816 144.014 10.0816C146.197 10.0816 147.873 10.8859 149.041 12.4944ZM141.257 20.9391C142.118 21.8008 143.2 22.2317 144.502 22.2317C145.805 22.2317 146.887 21.8008 147.748 20.9391C148.61 20.0583 149.041 18.9572 149.041 17.6359C149.041 16.3146 148.61 15.2231 147.748 14.3614C146.887 13.4806 145.805 13.0401 144.502 13.0401C143.2 13.0401 142.118 13.4806 141.257 14.3614C140.395 15.2231 139.964 16.3146 139.964 17.6359C139.964 18.938 140.395 20.0391 141.257 20.9391Z" fill="#A8CE37"/>
<path d="M158.861 10.455V12.8678C159.646 11.0869 161.12 10.1965 163.284 10.1965V13.5572C162.116 13.4806 161.082 13.7678 160.182 14.4189C159.301 15.0508 158.861 16.104 158.861 17.5785V24.8168H155.759V10.455H158.861Z" fill="#A8CE37"/>
<path d="M173.955 10.455V13.4423H170.393V20.3359C170.393 20.9295 170.527 21.3604 170.795 21.6285C171.063 21.8774 171.456 22.021 171.973 22.0593C172.509 22.0785 173.17 22.0689 173.955 22.0306V24.8168C171.58 25.104 169.876 24.903 168.842 24.2136C167.808 23.5051 167.291 22.2125 167.291 20.3359V13.4423H164.648V10.455H167.291V7.35288L170.393 6.43372V10.455H173.955Z" fill="#A8CE37"/>
<path d="M179.022 14.4189C179.022 14.8593 179.251 15.2231 179.711 15.5104C180.171 15.7785 180.841 16.037 181.722 16.2859C182.392 16.4391 182.976 16.6019 183.474 16.7742C183.972 16.9465 184.498 17.2051 185.054 17.5497C185.609 17.8753 186.03 18.3157 186.317 18.871C186.624 19.4072 186.767 20.0391 186.748 20.7668C186.748 22.1455 186.212 23.2274 185.14 24.0125C184.067 24.7976 182.737 25.1902 181.147 25.1902C179.73 25.1902 178.514 24.8934 177.499 24.2998C176.484 23.7062 175.747 22.8827 175.288 21.8295L177.959 20.2785C178.438 21.6572 179.5 22.3466 181.147 22.3466C182.775 22.3466 183.589 21.8104 183.589 20.7381C183.589 19.9529 182.679 19.3402 180.86 18.8997C180.171 18.7274 179.587 18.5551 179.108 18.3827C178.648 18.2104 178.131 17.9614 177.557 17.6359C177.001 17.3104 176.571 16.8795 176.264 16.3433C175.977 15.8072 175.843 15.1848 175.862 14.4763C175.862 13.155 176.36 12.0923 177.356 11.288C178.371 10.4837 179.625 10.0816 181.118 10.0816C182.306 10.0816 183.359 10.3497 184.278 10.8859C185.216 11.4029 185.934 12.1306 186.432 13.0689L183.819 14.5338C183.34 13.4423 182.44 12.8965 181.118 12.8965C180.506 12.8965 179.998 13.0306 179.596 13.2987C179.213 13.5667 179.022 13.9401 179.022 14.4189Z" fill="#A8CE37"/>
</g>
<defs>
<linearGradient id="paint0_linear_2197_2993" x1="19.4998" y1="30.4989" x2="-0.00150527" y2="30.4989" gradientUnits="userSpaceOnUse">
<stop stop-color="#2C2D2D"/>
<stop offset="1" stop-color="#828282"/>
</linearGradient>
<clipPath id="clip0_2197_2993">
<rect width="187" height="30" fill="white" transform="translate(0 0.5)"/>
</clipPath>
</defs>
</svg>
