<svg width="19" height="24" viewBox="0 0 19 24" fill="none" xmlns="http://www.w3.org/2000/svg">
<g clip-path="url(#clip0_197_582)">
<path d="M16.4286 6.71429H17C17.6312 6.71429 18.1429 6.20261 18.1429 5.57143V5C18.1429 4.36882 17.6312 3.85714 17 3.85714H13.5714M16.4286 6.71429V20.4286C16.4286 21.691 15.4053 22.7143 14.1429 22.7143H5C3.73763 22.7143 2.71429 21.691 2.71429 20.4286V6.71429M16.4286 6.71429H2.71429M13.5714 3.85714V3.28571C13.5714 2.02335 12.5481 1 11.2857 1H7.85714C6.59478 1 5.57143 2.02335 5.57143 3.28571V3.85714M13.5714 3.85714H5.57143M2.71429 6.71429H2.14286C1.51168 6.71429 1 6.20261 1 5.57143V5C1 4.36882 1.51168 3.85714 2.14286 3.85714H5.57143M7.28571 10.7143V18.7143M11.8571 10.7143V18.7143" stroke="#828282" stroke-width="1.25" stroke-linecap="round"/>
</g>
<defs>
<clipPath id="clip0_197_582">
<rect width="19" height="24" fill="white"/>
</clipPath>
</defs>
</svg>
