<?xml version="1.0" standalone="no"?>
<!DOCTYPE svg PUBLIC "-//W3C//DTD SVG 20010904//EN"
 "http://www.w3.org/TR/2001/REC-SVG-20010904/DTD/svg10.dtd">
<svg version="1.0" xmlns="http://www.w3.org/2000/svg"
 width="700.000000pt" height="700.000000pt" viewBox="0 0 700.000000 700.000000"
 preserveAspectRatio="xMidYMid meet">
<metadata>
Created by potrace 1.14, written by Peter Selinger 2001-2017
</metadata>
<g transform="translate(0.000000,700.000000) scale(0.100000,-0.100000)"
fill="#000000" stroke="none">
<path d="M2528 5320 c-25 -15 -66 -39 -90 -53 -23 -14 -169 -98 -323 -187
-154 -89 -297 -172 -318 -184 -21 -11 -46 -25 -55 -31 -10 -5 -53 -31 -97 -57
-44 -25 -206 -119 -360 -208 -154 -89 -285 -166 -291 -171 -8 -6 -11 -273 -11
-933 l0 -923 56 -32 c91 -51 134 -76 626 -361 259 -150 490 -284 515 -298 25
-14 57 -33 72 -43 14 -11 29 -19 32 -19 4 0 72 -38 152 -85 80 -47 147 -85
150 -85 3 0 332 189 384 221 18 11 235 135 337 193 40 23 73 44 73 48 0 8 -79
56 -360 216 l-195 111 -55 -10 c-112 -20 -265 -18 -395 5 -246 45 -529 224
-663 421 -15 22 -30 42 -34 43 -5 2 -8 8 -8 13 0 5 -11 27 -25 48 -39 59 -91
188 -116 292 -18 75 -23 123 -24 234 0 162 5 201 38 316 136 466 556 783 1037
783 82 0 199 -10 224 -20 10 -4 69 24 154 72 75 44 149 86 163 94 165 93 267
156 261 161 -4 4 -96 58 -205 120 -108 63 -212 122 -230 133 -17 10 -105 60
-194 112 -89 52 -166 94 -170 93 -4 0 -29 -13 -55 -29z"/>
<path d="M4395 5337 c-11 -7 -31 -19 -45 -28 -14 -9 -45 -27 -70 -41 -100 -55
-387 -222 -412 -239 -15 -11 -29 -19 -32 -19 -2 0 -85 -47 -183 -104 -98 -56
-279 -162 -403 -233 -124 -72 -271 -157 -327 -189 l-102 -59 0 -925 1 -926
155 -89 c85 -50 172 -100 192 -112 20 -13 45 -27 57 -32 12 -5 46 -26 77 -45
31 -20 59 -36 62 -36 3 0 31 -16 61 -35 30 -19 56 -35 58 -35 2 0 97 -55 212
-121 115 -67 229 -133 254 -147 25 -14 141 -81 257 -148 117 -68 215 -124 217
-124 3 0 193 109 423 241 230 133 432 250 450 260 17 10 50 29 72 43 22 15 43
26 45 26 2 0 50 27 106 60 56 33 104 60 106 60 2 0 23 12 47 27 23 15 53 34
67 41 14 7 85 48 158 90 l132 76 0 926 0 926 -67 39 c-38 22 -77 44 -88 51
-47 26 -114 65 -355 204 -140 81 -271 157 -290 167 -19 11 -120 70 -225 130
-104 61 -235 136 -290 168 -55 31 -141 82 -192 111 -50 30 -95 54 -100 53 -4
0 -17 -6 -28 -12z m185 -762 c404 -60 745 -343 873 -726 44 -130 57 -220 53
-374 -2 -77 -6 -151 -10 -165 -3 -14 -11 -47 -17 -75 -28 -120 -94 -260 -178
-375 -165 -226 -399 -373 -686 -431 -69 -14 -253 -17 -340 -5 -381 50 -725
323 -865 688 -48 125 -64 216 -65 368 0 157 6 215 30 300 98 340 326 597 645
727 168 69 383 95 560 68z"/>
</g>
</svg>
