<svg width="25" height="24" viewBox="0 0 25 24" fill="none" xmlns="http://www.w3.org/2000/svg">
<path d="M21.5 18V8C21.5 6.89543 20.6046 6 19.5 6H5.5C4.39543 6 3.5 6.89543 3.5 8V18C3.5 19.1046 4.39543 20 5.5 20H19.5C20.6046 20 21.5 19.1046 21.5 18Z" stroke="#A8CE37" stroke-width="1.25" stroke-linecap="round"/>
<path d="M12.5001 13.5C10.9859 13.5 9.66819 14.3413 8.989 15.5821C8.45861 16.551 9.39549 17.5 10.5001 17.5H14.5001C15.6047 17.5 16.5415 16.551 16.0112 15.5821C15.332 14.3413 14.0143 13.5 12.5001 13.5Z" stroke="#A8CE37" stroke-width="1.25" stroke-linecap="round"/>
<path d="M14 10.5C14 11.3284 13.3284 12 12.5 12C11.6716 12 11 11.3284 11 10.5C11 9.67157 11.6716 9 12.5 9C13.3284 9 14 9.67157 14 10.5Z" stroke="#A8CE37" stroke-width="1.25" stroke-linecap="round"/>
<path d="M13.5 6V4C13.5 3.44772 13.0523 3 12.5 3C11.9477 3 11.5 3.44772 11.5 4V6H13.5Z" stroke="#A8CE37" stroke-width="1.25" stroke-linecap="round"/>
</svg>
