<svg width="30" height="30" viewBox="0 0 30 30" fill="none" xmlns="http://www.w3.org/2000/svg">
<path d="M3.75 12.5C3.75 11.1193 4.86929 10 6.25 10H7.70834C8.71759 10 9.62785 9.39315 10.016 8.46154L10.2965 7.78846C10.6846 6.85685 11.5949 6.25 12.6041 6.25H17.3959C18.4051 6.25 19.3154 6.85685 19.7035 7.78846L19.984 8.46154C20.3721 9.39315 21.2824 10 22.2916 10H23.75C25.1307 10 26.25 11.1193 26.25 12.5V21.25C26.25 22.6307 25.1307 23.75 23.75 23.75H6.25C4.86929 23.75 3.75 22.6307 3.75 21.25V12.5Z" stroke="#A8CE37" stroke-width="1.25" stroke-linecap="round"/>
<path d="M18.75 16.25C18.75 18.3211 17.0711 20 15 20C12.9289 20 11.25 18.3211 11.25 16.25C11.25 14.1789 12.9289 12.5 15 12.5C17.0711 12.5 18.75 14.1789 18.75 16.25Z" stroke="#A8CE37" stroke-width="1.25" stroke-linecap="round"/>
</svg>
