<svg width="80" height="80" viewBox="0 0 80 80" fill="none" xmlns="http://www.w3.org/2000/svg">
<path d="M50.8433 33.703L39.6007 47.7073C38.3583 49.255 36.0477 49.381 34.6443 47.9777L30 43.3333" stroke="#231F20" stroke-width="2.3" stroke-linecap="round"/>
<path d="M43.528 14.315C44.22 13.8696 44.566 13.6469 44.8467 13.5018C48.3933 11.6681 52.7453 13.3418 54.1493 17.0793C54.2603 17.375 54.368 17.7721 54.5833 18.5664C54.6827 18.9332 54.7323 19.1166 54.788 19.2853C55.4607 21.3291 57.0783 22.9227 59.132 23.5644C59.3017 23.6174 59.4857 23.6643 59.854 23.7582L60.354 23.8856C62.084 24.3266 62.949 24.5471 63.5807 24.8604C66.4523 26.2845 67.904 29.5504 67.037 32.6362C66.8463 33.3151 66.4303 34.105 65.5987 35.6847L65.3583 36.1413C65.1813 36.4773 65.0927 36.6457 65.0183 36.807C64.1187 38.7613 64.2177 41.03 65.2843 42.899C65.3723 43.053 65.475 43.213 65.6807 43.5323C66.126 44.2243 66.3487 44.5703 66.494 44.851C68.3277 48.3977 66.654 52.7497 62.9163 54.1537C62.6207 54.2647 62.2237 54.3723 61.4293 54.5877C61.0627 54.687 60.879 54.7367 60.7103 54.7923C58.6667 55.465 57.073 57.0827 56.4313 59.1363C56.3783 59.306 56.3313 59.49 56.2377 59.8583L56.11 60.358C55.669 62.0883 55.4487 62.9533 55.1353 63.585C53.7113 66.4567 50.4453 67.9083 47.3597 67.0413C46.6807 66.8507 45.8907 66.4347 44.311 65.6027L43.8547 65.3623C43.5183 65.1853 43.3503 65.097 43.189 65.0227C41.2343 64.123 38.9657 64.222 37.097 65.2883C36.9427 65.3767 36.783 65.4793 36.4633 65.685C35.7713 66.1303 35.4253 66.353 35.1447 66.4983C31.5982 68.332 27.2461 66.6583 25.842 62.9207C25.731 62.625 25.6233 62.228 25.408 61.4337C25.3086 61.0667 25.259 60.8833 25.2034 60.7147C24.5308 58.671 22.913 57.0773 20.8593 56.4357C20.6898 56.3827 20.5057 56.3357 20.1375 56.2417L19.6376 56.1143C17.9075 55.6733 17.0425 55.453 16.4107 55.1397C13.5392 53.7157 12.0875 50.4497 12.9544 47.3637C13.1451 46.685 13.5611 45.895 14.3929 44.3153L14.6332 43.8587C14.8103 43.5227 14.8988 43.3543 14.973 43.193C15.8727 41.2387 15.7737 38.97 14.7072 37.101C14.6192 36.947 14.5164 36.787 14.3107 36.4677C13.8653 35.7757 13.6426 35.4297 13.4975 35.149C11.6639 31.6024 13.3375 27.2504 17.075 25.8463C17.3707 25.7352 17.7679 25.6276 18.5622 25.4123C18.9289 25.3129 19.1123 25.2632 19.281 25.2077C21.3248 24.5351 22.9184 22.9173 23.5602 20.8636C23.6131 20.694 23.6601 20.5099 23.7539 20.1417L23.8813 19.6419C24.3224 17.9118 24.5429 17.0468 24.8562 16.415C26.2802 13.5435 29.5461 12.0917 32.6319 12.9587C33.3108 13.1494 34.1007 13.5653 35.6803 14.3972L36.137 14.6375C36.473 14.8145 36.6413 14.903 36.8027 14.9773C38.757 15.877 41.0257 15.778 42.8947 14.7115C43.0487 14.6234 43.2087 14.5206 43.528 14.315Z" stroke="#231F20" stroke-width="3" stroke-linecap="round"/>
</svg>
