<svg width="80" height="80" viewBox="0 0 80 80" fill="none" xmlns="http://www.w3.org/2000/svg">
<path d="M31.6667 21.6667H10M21.6667 58.3333H10M16.6667 41.6667H10M59.0913 51.8333L62.0307 59.4747C63.2227 62.5743 59.6443 65.3203 56.9587 63.367L50.588 58.7337C48.2503 57.0333 45.083 57.0333 42.7453 58.7337L36.3747 63.367C33.689 65.3203 30.1107 62.5743 31.3028 59.4747L34.242 51.8333C35.3253 49.0167 34.3813 45.823 31.9402 44.0483L24.9588 38.972C22.3476 37.0733 23.6907 32.9426 26.9191 32.9426H34.5427C37.4523 32.9426 40.0257 31.0559 40.9007 28.2812L43.4877 20.0791C44.468 16.9715 48.8653 16.9715 49.8457 20.0791L52.4327 28.2812C53.3077 31.0559 55.881 32.9426 58.7907 32.9426H66.4143C69.6427 32.9426 70.9857 37.0733 68.3747 38.972L61.393 44.0483C58.952 45.823 58.008 49.0167 59.0913 51.8333Z" stroke="#231F20" stroke-width="3" stroke-linecap="round"/>
</svg>
