<svg width="80" height="80" viewBox="0 0 80 80" fill="none" xmlns="http://www.w3.org/2000/svg">
<path d="M40 15C22.511 15 8.33337 25.8443 8.33337 43.3333C8.33337 37.8103 13.0593 35 18.8889 35C24.7186 35 29.4445 37.8103 29.4445 43.3333C29.4445 37.8103 34.1704 35 40 35C45.8297 35 50.5557 37.8103 50.5557 43.3333C50.5557 37.8103 55.2814 35 61.111 35C66.9407 35 71.6667 37.8103 71.6667 43.3333C71.6667 25.8443 57.489 15 40 15ZM40 15V10M26.6667 63.3333C26.6667 67.0153 29.6515 70 33.3334 70C37.0154 70 40 67.0153 40 63.3333V43.3333" stroke="#231F20" stroke-width="3" stroke-linecap="round"/>
</svg>
