<svg width="200" height="33" viewBox="0 0 200 33" fill="none" xmlns="http://www.w3.org/2000/svg">
<g clip-path="url(#clip0_2342_9212)">
<path fill-rule="evenodd" clip-rule="evenodd" d="M29.851 32.1285L43.7701 24.0915V8.03698L29.851 0L15.9513 8.03698V24.0915L29.851 32.1285ZM29.8579 25.4931C35.0636 25.4931 39.2837 21.273 39.2837 16.0673C39.2837 10.8616 35.0636 6.64155 29.8579 6.64155C24.6522 6.64155 20.4322 10.8616 20.4322 16.0673C20.4322 21.273 24.6522 25.4931 29.8579 25.4931Z" fill="#A8CE37"/>
<path d="M13.8997 0L20.8907 4.03665L15.9872 6.87194C15.3178 6.72114 14.6215 6.64155 13.9066 6.64155C8.70092 6.64155 4.48086 10.8616 4.48086 16.0673C4.48086 21.273 8.70092 25.4931 13.9066 25.4931C14.6242 25.4931 15.3231 25.4129 15.9948 25.261L20.8907 28.0919L13.8997 32.1285L0 24.0915V8.03698L13.8997 0Z" fill="url(#paint0_linear_2342_9212)"/>
<path d="M62.9264 14.9062H73.693V16.3827C73.693 19.3358 72.7188 21.7557 70.7706 23.6424C68.8429 25.5086 66.2999 26.4417 63.1418 26.4417C59.8195 26.4417 57.0715 25.3651 54.8977 23.2118C52.7444 21.0585 51.6677 18.413 51.6677 15.2753C51.6677 12.1581 52.7444 9.52291 54.8977 7.36961C57.0715 5.19579 59.758 4.10889 62.9572 4.10889C64.9464 4.10889 66.7716 4.57031 68.4327 5.49315C70.1144 6.39549 71.4166 7.63621 72.3395 9.21529L69.2941 10.9687C68.7198 9.92281 67.8688 9.09225 66.7409 8.47702C65.6129 7.86179 64.3517 7.55418 62.9572 7.55418C60.7014 7.55418 58.8454 8.29245 57.3894 9.769C55.9333 11.2661 55.2053 13.1118 55.2053 15.3061C55.2053 17.5209 55.9333 19.3563 57.3894 20.8124C58.8864 22.2684 60.8141 22.9964 63.1725 22.9964C65.0592 22.9964 66.6076 22.5555 67.8175 21.6737C69.0275 20.7919 69.7965 19.5922 70.1246 18.0746H62.9264V14.9062Z" fill="white"/>
<path d="M91.5695 19.7665H79.3264C79.5725 20.9149 80.1262 21.807 80.9875 22.4427C81.8693 23.0785 82.9562 23.3963 84.2482 23.3963C85.9914 23.3963 87.3141 22.7606 88.2165 21.4891L90.9542 23.0887C89.4572 25.3241 87.2116 26.4417 84.2175 26.4417C81.736 26.4417 79.716 25.6829 78.1575 24.1654C76.6194 22.6273 75.8503 20.6893 75.8503 18.3515C75.8503 16.0751 76.6091 14.1576 78.1267 12.5991C79.6238 11.0405 81.572 10.2612 83.9714 10.2612C86.2067 10.2612 88.0524 11.0507 89.5085 12.6298C90.9645 14.2089 91.6925 16.1264 91.6925 18.3822C91.6925 18.7924 91.6515 19.2538 91.5695 19.7665ZM79.2956 17.0595H88.3395C88.1139 15.8495 87.6012 14.9164 86.8014 14.2602C86.0221 13.6039 85.0685 13.2758 83.9406 13.2758C82.7102 13.2758 81.6848 13.6142 80.8645 14.2909C80.0442 14.9677 79.5212 15.8905 79.2956 17.0595Z" fill="white"/>
<path d="M102.706 10.2612C104.49 10.2612 105.916 10.8354 106.982 11.9838C108.069 13.1118 108.612 14.6498 108.612 16.5981V26.0418H105.29V16.9364C105.29 15.788 104.982 14.9062 104.367 14.2909C103.752 13.6757 102.911 13.3681 101.845 13.3681C100.635 13.3681 99.6812 13.7475 98.984 14.5063C98.2867 15.2445 97.9381 16.3417 97.9381 17.7978V26.0418H94.6158V10.6611H97.9381V12.6298C98.9634 11.0507 100.553 10.2612 102.706 10.2612Z" fill="white"/>
<path d="M115.327 7.73874C114.917 8.1489 114.425 8.35397 113.851 8.35397C113.276 8.35397 112.774 8.1489 112.343 7.73874C111.933 7.30808 111.728 6.80564 111.728 6.23143C111.728 5.65722 111.933 5.16503 112.343 4.75488C112.753 4.32422 113.256 4.10889 113.851 4.10889C114.445 4.10889 114.948 4.32422 115.358 4.75488C115.768 5.16503 115.973 5.65722 115.973 6.23143C115.973 6.80564 115.758 7.30808 115.327 7.73874ZM115.512 26.0418H112.19V10.6611H115.512V26.0418Z" fill="white"/>
<path d="M122.691 10.6611V13.2451C123.532 11.3378 125.111 10.3842 127.429 10.3842V13.9833C126.178 13.9013 125.07 14.2089 124.106 14.9062C123.163 15.5829 122.691 16.7108 122.691 18.2899V26.0418H119.369V10.6611H122.691Z" fill="white"/>
<path d="M130.586 4.50879H138.523C140.553 4.50879 142.245 5.18554 143.598 6.53905C144.972 7.89255 145.659 9.57418 145.659 11.5839C145.659 13.5732 144.972 15.2548 143.598 16.6288C142.245 17.9823 140.553 18.6591 138.523 18.6591H134.124V26.0418H130.586V4.50879ZM134.124 15.3368H138.523C139.568 15.3368 140.43 14.9882 141.106 14.2909C141.783 13.5732 142.122 12.6708 142.122 11.5839C142.122 10.497 141.783 9.60494 141.106 8.90768C140.43 8.18992 139.568 7.83103 138.523 7.83103H134.124V15.3368Z" fill="#A8CE37"/>
<path d="M159.615 12.8452V10.6611H162.938V26.0418H159.615V23.827C158.364 25.5702 156.57 26.4417 154.232 26.4417C152.12 26.4417 150.315 25.6624 148.818 24.1039C147.321 22.5453 146.572 20.6278 146.572 18.3515C146.572 16.0751 147.321 14.1576 148.818 12.5991C150.315 11.0405 152.12 10.2612 154.232 10.2612C156.57 10.2612 158.364 11.1225 159.615 12.8452ZM151.279 21.889C152.202 22.8119 153.36 23.2733 154.755 23.2733C156.15 23.2733 157.308 22.8119 158.231 21.889C159.154 20.9457 159.615 19.7665 159.615 18.3515C159.615 16.9364 159.154 15.7675 158.231 14.8447C157.308 13.9013 156.15 13.4296 154.755 13.4296C153.36 13.4296 152.202 13.9013 151.279 14.8447C150.356 15.7675 149.895 16.9364 149.895 18.3515C149.895 19.746 150.356 20.9252 151.279 21.889Z" fill="#A8CE37"/>
<path d="M170.132 10.6611V13.2451C170.973 11.3378 172.552 10.3842 174.869 10.3842V13.9833C173.618 13.9013 172.511 14.2089 171.547 14.9062C170.604 15.5829 170.132 16.7109 170.132 18.2899V26.0418H166.81V10.6611H170.132Z" fill="#A8CE37"/>
<path d="M186.297 10.6611V13.8603H182.483V21.243C182.483 21.8788 182.626 22.3402 182.913 22.6273C183.2 22.8939 183.621 23.0477 184.175 23.0887C184.749 23.1092 185.456 23.099 186.297 23.058V26.0418C183.754 26.3495 181.929 26.1341 180.821 25.3958C179.714 24.6371 179.16 23.2528 179.16 21.243V13.8603H176.33V10.6611H179.16V7.33885L182.483 6.35448V10.6611H186.297Z" fill="#A8CE37"/>
<path d="M191.723 14.9062C191.723 15.3779 191.969 15.7675 192.462 16.0751C192.954 16.3622 193.672 16.6391 194.615 16.9057C195.333 17.0697 195.958 17.244 196.491 17.4286C197.025 17.6132 197.589 17.89 198.183 18.2592C198.778 18.6078 199.229 19.0795 199.537 19.6742C199.865 20.2484 200.019 20.9252 199.998 21.7045C199.998 23.181 199.424 24.3397 198.276 25.1805C197.127 26.0213 195.702 26.4417 194 26.4417C192.482 26.4417 191.18 26.1239 190.093 25.4881C189.006 24.8524 188.217 23.9706 187.724 22.8426L190.585 21.1815C191.098 22.6581 192.236 23.3963 194 23.3963C195.743 23.3963 196.614 22.8221 196.614 21.6737C196.614 20.8329 195.64 20.1766 193.692 19.705C192.954 19.5204 192.328 19.3358 191.816 19.1513C191.323 18.9667 190.77 18.7001 190.154 18.3515C189.56 18.0028 189.098 17.5414 188.77 16.9672C188.463 16.393 188.319 15.7265 188.34 14.9677C188.34 13.5527 188.873 12.4145 189.939 11.5532C191.026 10.6919 192.369 10.2612 193.969 10.2612C195.24 10.2612 196.368 10.5483 197.353 11.1225C198.358 11.6762 199.127 12.4555 199.66 13.4604L196.86 15.0292C196.348 13.8603 195.384 13.2758 193.969 13.2758C193.313 13.2758 192.769 13.4194 192.339 13.7065C191.928 13.9936 191.723 14.3935 191.723 14.9062Z" fill="#A8CE37"/>
</g>
<defs>
<linearGradient id="paint0_linear_2342_9212" x1="20.8833" y1="32.1273" x2="-0.00161207" y2="32.1273" gradientUnits="userSpaceOnUse">
<stop stop-color="#2C2D2D"/>
<stop offset="1" stop-color="#828282"/>
</linearGradient>
<clipPath id="clip0_2342_9212">
<rect width="200" height="33" fill="white"/>
</clipPath>
</defs>
</svg>
