<svg width="659" height="43" viewBox="0 0 659 43" fill="none" xmlns="http://www.w3.org/2000/svg">
<rect x="0.75" y="0.75" width="175.5" height="41.5" rx="9.25" stroke="#828282" stroke-width="1.5"/>
<path d="M21.2 14.8H29.328V26H27.84V16.208H22.688V26H21.2V14.8ZM38.3393 24.992C37.5286 25.8027 36.5313 26.208 35.3473 26.208C34.1633 26.208 33.1659 25.8027 32.3553 24.992C31.5446 24.1813 31.1393 23.184 31.1393 22C31.1393 20.816 31.5446 19.8187 32.3553 19.008C33.1659 18.1973 34.1633 17.792 35.3473 17.792C36.5313 17.792 37.5286 18.1973 38.3393 19.008C39.1606 19.8293 39.5712 20.8267 39.5712 22C39.5712 23.1733 39.1606 24.1707 38.3393 24.992ZM35.3473 24.848C36.1473 24.848 36.8193 24.576 37.3633 24.032C37.9073 23.488 38.1793 22.8107 38.1793 22C38.1793 21.1893 37.9073 20.512 37.3633 19.968C36.8193 19.424 36.1473 19.152 35.3473 19.152C34.5579 19.152 33.8913 19.424 33.3473 19.968C32.8033 20.512 32.5312 21.1893 32.5312 22C32.5312 22.8107 32.8033 23.488 33.3473 24.032C33.8913 24.576 34.5579 24.848 35.3473 24.848ZM48.4923 24.272L50.7963 18H52.2843L49.0203 26.496C48.6789 27.4027 48.1989 28.0907 47.5803 28.56C46.9616 29.04 46.2576 29.2533 45.4683 29.2V27.904C46.4389 27.9787 47.1589 27.4453 47.6283 26.304L47.7563 26.016L44.2843 18H45.7563L48.4923 24.272ZM59.9586 18H61.4466V26H60.0866V20.192L57.5426 24.288H57.3666L54.8226 20.192V26H53.4466V18H54.9346L57.4466 22.048L59.9586 18ZM70.3236 24.992C69.513 25.8027 68.5156 26.208 67.3316 26.208C66.1476 26.208 65.1503 25.8027 64.3396 24.992C63.529 24.1813 63.1236 23.184 63.1236 22C63.1236 20.816 63.529 19.8187 64.3396 19.008C65.1503 18.1973 66.1476 17.792 67.3316 17.792C68.5156 17.792 69.513 18.1973 70.3236 19.008C71.145 19.8293 71.5556 20.8267 71.5556 22C71.5556 23.1733 71.145 24.1707 70.3236 24.992ZM67.3316 24.848C68.1316 24.848 68.8036 24.576 69.3476 24.032C69.8916 23.488 70.1636 22.8107 70.1636 22C70.1636 21.1893 69.8916 20.512 69.3476 19.968C68.8036 19.424 68.1316 19.152 67.3316 19.152C66.5423 19.152 65.8756 19.424 65.3316 19.968C64.7876 20.512 64.5156 21.1893 64.5156 22C64.5156 22.8107 64.7876 23.488 65.3316 24.032C65.8756 24.576 66.5423 24.848 67.3316 24.848ZM73.6514 18H79.5874V26H78.1954V19.344H75.0434V22.608C75.0434 23.888 74.7874 24.8 74.2754 25.344C73.7634 25.8773 73.0114 26.096 72.0194 26V24.688C72.574 24.7627 72.9847 24.64 73.2514 24.32C73.518 23.9893 73.6514 23.408 73.6514 22.576V18ZM86.7366 21.824V18H88.1286V26H86.7366V23.12C86.086 23.3973 85.366 23.536 84.5766 23.536C83.542 23.536 82.7473 23.2907 82.1926 22.8C81.638 22.3093 81.3606 21.5947 81.3606 20.656V18H82.7526V20.576C82.7526 21.1627 82.9073 21.5893 83.2166 21.856C83.5366 22.112 84.022 22.24 84.6726 22.24C85.4086 22.24 86.0966 22.1013 86.7366 21.824ZM96.8675 19.376V18H98.2595V26H96.8675V24.624C96.1848 25.68 95.1768 26.208 93.8435 26.208C92.7128 26.208 91.7582 25.8027 90.9795 24.992C90.1902 24.1707 89.7955 23.1733 89.7955 22C89.7955 20.8373 90.1902 19.8453 90.9795 19.024C91.7688 18.2027 92.7235 17.792 93.8435 17.792C95.1768 17.792 96.1848 18.32 96.8675 19.376ZM94.0195 24.864C94.8302 24.864 95.5075 24.592 96.0515 24.048C96.5955 23.4827 96.8675 22.8 96.8675 22C96.8675 21.1893 96.5955 20.512 96.0515 19.968C95.5075 19.4133 94.8302 19.136 94.0195 19.136C93.2195 19.136 92.5475 19.4133 92.0035 19.968C91.4595 20.512 91.1875 21.1893 91.1875 22C91.1875 22.8 91.4595 23.4827 92.0035 24.048C92.5475 24.592 93.2195 24.864 94.0195 24.864ZM105.905 21.328V18H107.297V26H105.905V22.656H101.761V26H100.368V18H101.761V21.328H105.905ZM110.791 23.616L115.223 18H116.343V26H114.967V20.384L110.535 26H109.415V18H110.791V23.616ZM125.454 17.792C126.628 17.792 127.62 18.1973 128.43 19.008C129.252 19.8293 129.662 20.8267 129.662 22C129.662 23.1733 129.252 24.1707 128.43 24.992C127.62 25.8027 126.628 26.208 125.454 26.208C124.398 26.208 123.486 25.872 122.718 25.2C121.94 24.528 121.481 23.68 121.342 22.656H119.854V26H118.462V18H119.854V21.328H121.342C121.492 20.304 121.95 19.4613 122.718 18.8C123.508 18.128 124.42 17.792 125.454 17.792ZM125.454 24.848C126.244 24.848 126.91 24.576 127.454 24.032C127.998 23.488 128.27 22.8107 128.27 22C128.27 21.1893 127.998 20.512 127.454 19.968C126.91 19.424 126.244 19.152 125.454 19.152C124.654 19.152 123.982 19.424 123.438 19.968C122.894 20.512 122.622 21.1893 122.622 22C122.622 22.8107 122.894 23.488 123.438 24.032C123.982 24.576 124.654 24.848 125.454 24.848Z" fill="#231F20"/>
<path d="M157 18.5L151 24.5L145 18.5" stroke="#A8CE37" stroke-width="1.5" stroke-linecap="round"/>
<rect x="207.75" y="0.75" width="159.5" height="41.5" rx="9.25" stroke="#828282" stroke-width="1.5"/>
<path d="M234.2 24.816V26.08H232.744V24.816C231.144 24.6987 229.859 24.2613 228.888 23.504C227.928 22.736 227.448 21.7013 227.448 20.4C227.448 19.0987 227.928 18.064 228.888 17.296C229.859 16.5387 231.144 16.1013 232.744 15.984V14.72H234.2V15.984C235.821 16.1013 237.107 16.5387 238.056 17.296C239.027 18.064 239.512 19.0987 239.512 20.4C239.512 21.7013 239.027 22.736 238.056 23.504C237.107 24.2613 235.821 24.6987 234.2 24.816ZM234.2 17.344V23.456C235.427 23.3707 236.371 23.072 237.032 22.56C237.693 22.0373 238.024 21.3173 238.024 20.4C238.024 19.4827 237.693 18.768 237.032 18.256C236.371 17.7333 235.427 17.4293 234.2 17.344ZM229.912 18.256C229.251 18.768 228.92 19.4827 228.92 20.4C228.92 21.3173 229.251 22.032 229.912 22.544C230.573 23.056 231.517 23.3547 232.744 23.44V17.344C231.517 17.4293 230.573 17.7333 229.912 18.256ZM242.37 23.616L246.802 18H247.922V26H246.546V20.384L242.114 26H240.993V18H242.37V23.616ZM250.776 18H256.712V26H255.32V19.344H252.168V22.608C252.168 23.888 251.912 24.8 251.4 25.344C250.888 25.8773 250.136 26.096 249.144 26V24.688C249.699 24.7627 250.11 24.64 250.376 24.32C250.643 23.9893 250.776 23.408 250.776 22.576V18ZM260.214 20.88H262.198C262.998 20.88 263.659 21.12 264.182 21.6C264.715 22.0693 264.982 22.6827 264.982 23.44C264.982 24.1973 264.715 24.816 264.182 25.296C263.648 25.7653 262.987 26 262.198 26H258.822V18H260.214V20.88ZM260.214 24.704H262.198C262.603 24.704 262.939 24.5867 263.206 24.352C263.472 24.1173 263.606 23.8133 263.606 23.44C263.606 23.0667 263.467 22.7627 263.19 22.528C262.923 22.2827 262.592 22.16 262.198 22.16H260.214V24.704ZM264.66 18H271.508V19.344H268.788V26H267.396V19.344H264.66V18ZM277.144 17.792C278.264 17.792 279.219 18.2027 280.008 19.024C280.797 19.8453 281.192 20.8373 281.192 22C281.192 23.1733 280.797 24.1707 280.008 24.992C279.229 25.8027 278.275 26.208 277.144 26.208C275.821 26.208 274.813 25.68 274.12 24.624V29.2H272.728V18H274.12V19.376C274.813 18.32 275.821 17.792 277.144 17.792ZM276.968 24.864C277.768 24.864 278.44 24.592 278.984 24.048C279.528 23.4827 279.8 22.8 279.8 22C279.8 21.1893 279.528 20.512 278.984 19.968C278.44 19.4133 277.768 19.136 276.968 19.136C276.157 19.136 275.48 19.4133 274.936 19.968C274.392 20.512 274.12 21.1893 274.12 22C274.12 22.8 274.392 23.4827 274.936 24.048C275.48 24.592 276.157 24.864 276.968 24.864ZM289.477 19.376V18H290.869V26H289.477V24.624C288.794 25.68 287.786 26.208 286.453 26.208C285.322 26.208 284.368 25.8027 283.589 24.992C282.8 24.1707 282.405 23.1733 282.405 22C282.405 20.8373 282.8 19.8453 283.589 19.024C284.378 18.2027 285.333 17.792 286.453 17.792C287.786 17.792 288.794 18.32 289.477 19.376ZM286.629 24.864C287.44 24.864 288.117 24.592 288.661 24.048C289.205 23.4827 289.477 22.8 289.477 22C289.477 21.1893 289.205 20.512 288.661 19.968C288.117 19.4133 287.44 19.136 286.629 19.136C285.829 19.136 285.157 19.4133 284.613 19.968C284.069 20.512 283.797 21.1893 283.797 22C283.797 22.8 284.069 23.4827 284.613 24.048C285.157 24.592 285.829 24.864 286.629 24.864ZM299.698 18V24.672H301.01V28.144H299.634V26H292.978V18H294.37V24.672H298.306V18H299.698ZM303.87 23.616L308.302 18H309.422V26H308.046V20.384L303.614 26H302.493V18H303.87V23.616ZM314.116 18H317.524V26H316.148V23.12H314.98L312.74 26H311.044L313.38 23.04C312.772 22.8907 312.282 22.592 311.908 22.144C311.546 21.696 311.364 21.1733 311.364 20.576C311.364 19.84 311.626 19.2267 312.148 18.736C312.671 18.2453 313.327 18 314.116 18ZM314.164 21.872H316.148V19.296H314.164C313.759 19.296 313.418 19.4187 313.14 19.664C312.874 19.8987 312.74 20.208 312.74 20.592C312.74 20.9653 312.874 21.2747 313.14 21.52C313.418 21.7547 313.759 21.872 314.164 21.872Z" fill="#231F20"/>
<path d="M343 18.5L333.5 18.5M343 18.5C343 19.8807 344.119 21 345.5 21C346.881 21 348 19.8807 348 18.5C348 17.1193 346.881 16 345.5 16C344.119 16 343 17.1193 343 18.5ZM347.5 24.5H338M338 24.5C338 25.8807 336.881 27 335.5 27C334.119 27 333 25.8807 333 24.5C333 23.1193 334.119 22 335.5 22C336.881 22 338 23.1193 338 24.5Z" stroke="#A8CE37" stroke-width="1.5" stroke-linecap="round"/>
<rect x="398.5" y="14" width="15" height="15" rx="2.5" stroke="#828282"/>
<path d="M424.32 14.8H432.32V15.856H428.88V26H427.76V15.856H424.32V14.8ZM439.027 24.992C438.206 25.792 437.214 26.192 436.051 26.192C434.867 26.192 433.87 25.792 433.059 24.992C432.248 24.1813 431.843 23.184 431.843 22C431.843 20.816 432.248 19.824 433.059 19.024C433.87 18.2133 434.867 17.808 436.051 17.808C437.224 17.808 438.216 18.2133 439.027 19.024C439.848 19.824 440.259 20.816 440.259 22C440.259 23.1733 439.848 24.1707 439.027 24.992ZM433.811 24.256C434.419 24.864 435.166 25.168 436.051 25.168C436.936 25.168 437.683 24.864 438.291 24.256C438.899 23.6267 439.203 22.8747 439.203 22C439.203 21.1147 438.899 20.368 438.291 19.76C437.683 19.1413 436.936 18.832 436.051 18.832C435.166 18.832 434.419 19.1413 433.811 19.76C433.203 20.368 432.899 21.1147 432.899 22C432.899 22.8747 433.203 23.6267 433.811 24.256ZM447.114 21.888C447.989 22.208 448.426 22.832 448.426 23.76C448.426 24.4213 448.202 24.96 447.754 25.376C447.317 25.792 446.704 26 445.914 26H442.026V18H445.594C446.362 18 446.96 18.1973 447.386 18.592C447.824 18.9867 448.042 19.504 448.042 20.144C448.042 20.944 447.733 21.5253 447.114 21.888ZM445.594 19.024H443.082V21.456H445.594C446.522 21.456 446.986 21.04 446.986 20.208C446.986 19.8347 446.864 19.5467 446.618 19.344C446.384 19.1307 446.042 19.024 445.594 19.024ZM443.082 24.976H445.914C446.384 24.976 446.741 24.864 446.986 24.64C447.242 24.416 447.37 24.1013 447.37 23.696C447.37 23.312 447.242 23.0133 446.986 22.8C446.741 22.5867 446.384 22.48 445.914 22.48H443.082V24.976ZM456.906 19.568V18H457.962V26H456.906V24.432C456.17 25.6053 455.093 26.192 453.674 26.192C452.533 26.192 451.557 25.7867 450.746 24.976C449.946 24.1653 449.546 23.1733 449.546 22C449.546 20.8267 449.946 19.8347 450.746 19.024C451.557 18.2133 452.533 17.808 453.674 17.808C455.093 17.808 456.17 18.3947 456.906 19.568ZM451.514 24.256C452.122 24.864 452.869 25.168 453.754 25.168C454.64 25.168 455.386 24.864 455.994 24.256C456.602 23.6267 456.906 22.8747 456.906 22C456.906 21.1147 456.602 20.368 455.994 19.76C455.386 19.1413 454.64 18.832 453.754 18.832C452.869 18.832 452.122 19.1413 451.514 19.76C450.906 20.368 450.602 21.1147 450.602 22C450.602 22.8747 450.906 23.6267 451.514 24.256ZM464.486 17.808C465.627 17.808 466.598 18.2133 467.398 19.024C468.209 19.8347 468.614 20.8267 468.614 22C468.614 23.1733 468.209 24.1653 467.398 24.976C466.598 25.7867 465.627 26.192 464.486 26.192C463.067 26.192 461.99 25.6053 461.254 24.432V29.2H460.198V18H461.254V19.568C461.99 18.3947 463.067 17.808 464.486 17.808ZM462.166 24.256C462.774 24.864 463.521 25.168 464.406 25.168C465.291 25.168 466.038 24.864 466.646 24.256C467.254 23.6267 467.558 22.8747 467.558 22C467.558 21.1147 467.254 20.368 466.646 19.76C466.038 19.1413 465.291 18.832 464.406 18.832C463.521 18.832 462.774 19.1413 462.166 19.76C461.558 20.368 461.254 21.1147 461.254 22C461.254 22.8747 461.558 23.6267 462.166 24.256ZM471.426 21.04H473.618C474.354 21.04 474.983 21.2747 475.506 21.744C476.029 22.2027 476.29 22.7947 476.29 23.52C476.29 24.256 476.029 24.8533 475.506 25.312C475.005 25.7707 474.375 26 473.618 26H470.37V18H471.426V21.04ZM477.41 26V18H478.466V26H477.41ZM471.426 24.976H473.618C474.077 24.976 474.461 24.8427 474.77 24.576C475.079 24.2987 475.234 23.9467 475.234 23.52C475.234 23.0933 475.079 22.7467 474.77 22.48C474.461 22.2027 474.077 22.064 473.618 22.064H471.426V24.976ZM481.194 24.64H482.474L481.514 28.24H480.554L481.194 24.64ZM489.614 24.16L494.382 18H495.278V26H494.222V19.84L489.454 26H488.558V18H489.614V24.16ZM504.135 18H505.351V26H504.295V19.616L501.495 24.16H501.367L498.567 19.616V26H497.511V18H498.727L501.431 22.384L504.135 18ZM511.285 17.808C512.479 17.808 513.434 18.2293 514.149 19.072C514.885 19.904 515.253 20.8907 515.253 22.032C515.253 22.0853 515.242 22.2507 515.221 22.528H508.197C508.303 23.328 508.645 23.968 509.221 24.448C509.797 24.928 510.517 25.168 511.381 25.168C512.597 25.168 513.455 24.7147 513.957 23.808L514.885 24.352C514.533 24.928 514.047 25.3813 513.429 25.712C512.821 26.032 512.133 26.192 511.365 26.192C510.106 26.192 509.082 25.7973 508.293 25.008C507.503 24.2187 507.109 23.216 507.109 22C507.109 20.7947 507.498 19.7973 508.277 19.008C509.055 18.208 510.058 17.808 511.285 17.808ZM511.285 18.832C510.453 18.832 509.754 19.0773 509.189 19.568C508.634 20.0587 508.303 20.704 508.197 21.504H514.165C514.047 20.6507 513.722 19.9947 513.189 19.536C512.634 19.0667 511.999 18.832 511.285 18.832ZM523.765 17.808C524.938 17.808 525.93 18.2133 526.741 19.024C527.562 19.824 527.973 20.816 527.973 22C527.973 23.1733 527.562 24.1707 526.741 24.992C525.919 25.792 524.927 26.192 523.765 26.192C522.698 26.192 521.77 25.8453 520.981 25.152C520.202 24.4373 519.759 23.5573 519.653 22.512H517.989V26H516.933V18H517.989V21.488H519.653C519.77 20.432 520.213 19.5573 520.981 18.864C521.759 18.16 522.687 17.808 523.765 17.808ZM521.525 24.256C522.133 24.864 522.879 25.168 523.765 25.168C524.65 25.168 525.397 24.864 526.005 24.256C526.613 23.6267 526.917 22.8747 526.917 22C526.917 21.1147 526.613 20.368 526.005 19.76C525.397 19.1413 524.65 18.832 523.765 18.832C522.879 18.832 522.133 19.1413 521.525 19.76C520.917 20.368 520.613 21.1147 520.613 22C520.613 22.8747 520.917 23.6267 521.525 24.256ZM540.449 18V24.976H541.569V28.144H540.513V26H529.729V18H530.785V24.976H534.561V18H535.617V24.976H539.393V18H540.449ZM544.223 24.16L548.991 18H549.887V26H548.831V19.84L544.063 26H543.167V18H544.223V24.16ZM555.816 17.808C557.011 17.808 557.965 18.2293 558.68 19.072C559.416 19.904 559.784 20.8907 559.784 22.032C559.784 22.0853 559.773 22.2507 559.752 22.528H552.728C552.835 23.328 553.176 23.968 553.752 24.448C554.328 24.928 555.048 25.168 555.912 25.168C557.128 25.168 557.987 24.7147 558.488 23.808L559.416 24.352C559.064 24.928 558.579 25.3813 557.96 25.712C557.352 26.032 556.664 26.192 555.896 26.192C554.637 26.192 553.613 25.7973 552.824 25.008C552.035 24.2187 551.64 23.216 551.64 22C551.64 20.7947 552.029 19.7973 552.808 19.008C553.587 18.208 554.589 17.808 555.816 17.808ZM555.816 18.832C554.984 18.832 554.285 19.0773 553.72 19.568C553.165 20.0587 552.835 20.704 552.728 21.504H558.696C558.579 20.6507 558.253 19.9947 557.72 19.536C557.165 19.0667 556.531 18.832 555.816 18.832ZM565.192 26.192C563.986 26.192 562.984 25.792 562.184 24.992C561.384 24.1707 560.984 23.1733 560.984 22C560.984 20.816 561.384 19.824 562.184 19.024C562.984 18.2133 563.986 17.808 565.192 17.808C565.981 17.808 566.69 18 567.32 18.384C567.949 18.7573 568.408 19.264 568.696 19.904L567.832 20.4C567.618 19.92 567.272 19.5413 566.792 19.264C566.322 18.976 565.789 18.832 565.192 18.832C564.306 18.832 563.56 19.1413 562.952 19.76C562.344 20.368 562.04 21.1147 562.04 22C562.04 22.8747 562.344 23.6267 562.952 24.256C563.56 24.864 564.306 25.168 565.192 25.168C565.778 25.168 566.306 25.0293 566.776 24.752C567.256 24.4747 567.629 24.0907 567.896 23.6L568.776 24.112C568.445 24.752 567.96 25.2587 567.32 25.632C566.68 26.0053 565.97 26.192 565.192 26.192ZM572.648 18H575.896V26H574.84V22.928H573.464L571 26H569.656L572.184 22.896C571.533 22.8 571 22.5333 570.584 22.096C570.178 21.648 569.976 21.1093 569.976 20.48C569.976 19.7653 570.232 19.1733 570.744 18.704C571.277 18.2347 571.912 18 572.648 18ZM572.648 21.936H574.84V19.024H572.648C572.189 19.024 571.805 19.1627 571.496 19.44C571.186 19.7067 571.032 20.0533 571.032 20.48C571.032 20.9067 571.186 21.2587 571.496 21.536C571.805 21.8027 572.189 21.936 572.648 21.936ZM587.8 21.488V18H588.856V26H587.8V22.512H583.192V26H582.136V18H583.192V21.488H587.8ZM597.969 19.568V18H599.025V26H597.969V24.432C597.233 25.6053 596.155 26.192 594.737 26.192C593.595 26.192 592.619 25.7867 591.809 24.976C591.009 24.1653 590.609 23.1733 590.609 22C590.609 20.8267 591.009 19.8347 591.809 19.024C592.619 18.2133 593.595 17.808 594.737 17.808C596.155 17.808 597.233 18.3947 597.969 19.568ZM592.577 24.256C593.185 24.864 593.931 25.168 594.817 25.168C595.702 25.168 596.449 24.864 597.057 24.256C597.665 23.6267 597.969 22.8747 597.969 22C597.969 21.1147 597.665 20.368 597.057 19.76C596.449 19.1413 595.702 18.832 594.817 18.832C593.931 18.832 593.185 19.1413 592.577 19.76C591.969 20.368 591.665 21.1147 591.665 22C591.665 22.8747 591.969 23.6267 592.577 24.256ZM608.989 26.192C607.783 26.192 606.781 25.792 605.981 24.992C605.181 24.1707 604.781 23.1733 604.781 22C604.781 20.816 605.181 19.824 605.981 19.024C606.781 18.2133 607.783 17.808 608.989 17.808C609.778 17.808 610.487 18 611.117 18.384C611.746 18.7573 612.205 19.264 612.493 19.904L611.629 20.4C611.415 19.92 611.069 19.5413 610.589 19.264C610.119 18.976 609.586 18.832 608.989 18.832C608.103 18.832 607.357 19.1413 606.749 19.76C606.141 20.368 605.837 21.1147 605.837 22C605.837 22.8747 606.141 23.6267 606.749 24.256C607.357 24.864 608.103 25.168 608.989 25.168C609.575 25.168 610.103 25.0293 610.573 24.752C611.053 24.4747 611.426 24.0907 611.693 23.6L612.573 24.112C612.242 24.752 611.757 25.2587 611.117 25.632C610.477 26.0053 609.767 26.192 608.989 26.192ZM616.265 21.84L620.553 26H619.145L615.145 22.144V26H614.089V18H615.145V21.536L618.953 18H620.393L616.265 21.84ZM622.827 18H628.555V26H627.499V19.024H623.883V22.592C623.883 23.9253 623.627 24.8427 623.115 25.344C622.614 25.8453 621.92 26.064 621.035 26V25.008C621.654 25.072 622.107 24.9227 622.395 24.56C622.683 24.1973 622.827 23.5413 622.827 22.592V18ZM637.672 19.568V18H638.728V26H637.672V24.432C636.936 25.6053 635.859 26.192 634.44 26.192C633.299 26.192 632.323 25.7867 631.512 24.976C630.712 24.1653 630.312 23.1733 630.312 22C630.312 20.8267 630.712 19.8347 631.512 19.024C632.323 18.2133 633.299 17.808 634.44 17.808C635.859 17.808 636.936 18.3947 637.672 19.568ZM632.28 24.256C632.888 24.864 633.635 25.168 634.52 25.168C635.405 25.168 636.152 24.864 636.76 24.256C637.368 23.6267 637.672 22.8747 637.672 22C637.672 21.1147 637.368 20.368 636.76 19.76C636.152 19.1413 635.405 18.832 634.52 18.832C633.635 18.832 632.888 19.1413 632.28 19.76C631.672 20.368 631.368 21.1147 631.368 22C631.368 22.8747 631.672 23.6267 632.28 24.256ZM647.684 18V24.976H648.804V28.144H647.748V26H641.22V28.144H640.164V24.976H641.14C641.684 24.2507 641.956 23.2427 641.956 21.952V18H647.684ZM642.42 24.976H646.628V19.024H643.012V21.952C643.012 23.1893 642.814 24.1973 642.42 24.976ZM653.785 17.808C654.979 17.808 655.934 18.2293 656.649 19.072C657.385 19.904 657.753 20.8907 657.753 22.032C657.753 22.0853 657.742 22.2507 657.721 22.528H650.697C650.803 23.328 651.145 23.968 651.721 24.448C652.297 24.928 653.017 25.168 653.881 25.168C655.097 25.168 655.955 24.7147 656.457 23.808L657.385 24.352C657.033 24.928 656.547 25.3813 655.929 25.712C655.321 26.032 654.633 26.192 653.865 26.192C652.606 26.192 651.582 25.7973 650.793 25.008C650.003 24.2187 649.609 23.216 649.609 22C649.609 20.7947 649.998 19.7973 650.777 19.008C651.555 18.208 652.558 17.808 653.785 17.808ZM653.785 18.832C652.953 18.832 652.254 19.0773 651.689 19.568C651.134 20.0587 650.803 20.704 650.697 21.504H656.665C656.547 20.6507 656.222 19.9947 655.689 19.536C655.134 19.0667 654.499 18.832 653.785 18.832Z" fill="#231F20"/>
</svg>
