<svg width="17" height="13" viewBox="0 0 17 13" fill="none" xmlns="http://www.w3.org/2000/svg">
<g clip-path="url(#clip0_4063_3267)">
<path d="M11 3.50002L1.5 3.5M11 3.50002C11 4.88073 12.1193 6 13.5 6C14.8807 6 16 4.88071 16 3.5C16 2.11929 14.8807 1 13.5 1C12.1193 1 11 2.1193 11 3.50002ZM15.5 9.5H6.00001M6.00001 9.5C6.00001 10.8807 4.88071 12 3.5 12C2.11929 12 1 10.8807 1 9.5C1 8.1193 2.11929 7 3.5 7C4.88071 7 6.00001 8.1193 6.00001 9.5Z" stroke="#A8CE37" stroke-width="1.5" stroke-linecap="round"/>
</g>
<defs>
<clipPath id="clip0_4063_3267">
<rect width="17" height="13" fill="white"/>
</clipPath>
</defs>
</svg>
